<svg width="25" height="19" xmlns="http://www.w3.org/2000/svg"><g transform="translate(1.016 1.017)" stroke="currentColor" fill="none" fill-rule="evenodd"><rect stroke-width="1.2" stroke-linecap="round" width="23" height="17" rx="2"/><path d="m20.888 5.917-.314.466a2.644 2.644 0 0 0-1.62-.56.722.722 0 0 0-.56.221.874.874 0 0 0-.243.596c0 .583.463.933 1.067 1.353.812.574 1.742 1.008 1.78 2.063.039 1.055-.794 1.867-2.052 1.927a2.977 2.977 0 0 1-2.07-.858l.319-.542c.486.387 1.07.598 1.67.602.689 0 1.275-.466 1.245-1.12-.025-.574-.748-.905-1.38-1.316-.804-.546-1.429-1.017-1.429-2.025 0-.933.514-1.67 1.7-1.699a2.82 2.82 0 0 1 1.887.892Zm-7.034 6.066c1.734 0 2.457-1.092 2.457-3.047V5.203h-.85v3.36c.007.5-.029 1-.107 1.493-.144.686-.675 1.12-1.5 1.12-.68.066-1.307-.402-1.5-1.12a7.885 7.885 0 0 1-.107-1.493v-3.37h-.85v3.734c0 1.908.668 3.056 2.457 3.056Zm-5.95-.079h3.362v-.812H8.439V4.983h-.85v6.59a.33.33 0 0 0 .084.242.27.27 0 0 0 .222.089h.009Zm-5.054 0v-2.58a7.494 7.494 0 0 0 2.006-.14c.88-.197 1.53-1.022 1.577-2.007-.04-.977-.673-1.803-1.543-2.012a7.703 7.703 0 0 0-1.912-.14H2v6.879h.85Zm1.976-5.857c.423.193.713.629.753 1.13-.033.515-.332.965-.77 1.157a4.62 4.62 0 0 1-1.959.13V5.88a5.689 5.689 0 0 1 1.976.168Z" stroke-width=".2" fill="currentColor" fill-rule="nonzero"/></g></svg>