<svg width="122" height="22" xmlns="http://www.w3.org/2000/svg"><defs><linearGradient x1="0%" y1="50%" x2="106.092%" y2="50%" id="a"><stop stop-color="#FF4000" offset="0%"/><stop stop-color="#FF6C3E" offset="100%"/></linearGradient></defs><g fill="none" fill-rule="evenodd"><path d="M4 .5c-.966 0-1.841.392-2.475 1.025A3.489 3.489 0 00.5 4h0v16c0 .414.168.79.44 1.06.27.272.646.44 1.06.44h73.5V.5z" stroke="#FF4000" fill="#FFF"/><path d="M11.534 17.302v-.784h8.932v.784h1.022V11.73h-1.022v3.822h-3.948v-5.138h4.284V5.612h-1.008v3.822h-3.276V4.548h-1.036v4.886h-3.276V5.612h-1.008v4.802h4.284v5.138h-3.948V11.73h-1.022v5.572h1.022zm12.754.098c1.176-1.75 1.806-4.088 1.862-7V6.228h9.758v-.98h-10.78V10.4c-.042 2.688-.574 4.802-1.61 6.314l.77.686zm16.086-.042V7.684c.434-.854.798-1.75 1.092-2.688l-.952-.434a15.555 15.555 0 01-2.996 5.67l.336 1.064a17.469 17.469 0 001.484-1.876v7.938h1.036zm.952-6.79c1.694-1.176 3.094-2.828 4.214-4.97.966 1.904 2.436 3.514 4.396 4.816l.574-.854c-2.128-1.414-3.64-3.052-4.508-4.928h-.91c-1.008 2.086-2.45 3.78-4.326 5.082l.56.854zm6.566 6.706V9.462h-.98v7.812h.98zm-5.67.154c1.344-1.232 2.03-3.164 2.058-5.81V9.504h-.966v2.114c-.028 2.366-.644 4.088-1.848 5.152l.756.658z" fill="#FF4000" fill-rule="nonzero"/><path d="M61 0h61l-3 22H59a2 2 0 01-2-2V4a4 4 0 014-4z" fill="url(#a)" transform="matrix(-1 0 0 1 179 0)"/></g></svg>