<svg width="30" height="27" xmlns="http://www.w3.org/2000/svg"><g fill="#6b7280" fill-rule="evenodd"><path d="M17 0a3 3 0 0 1 3 3v12a3 3 0 0 1-3 3H3a3 3 0 0 1-3-3V3a3 3 0 0 1 3-3h14zm0 1.3H3a1.7 1.7 0 0 0-1.694 1.553L1.3 3v12a1.7 1.7 0 0 0 1.553 1.694L3 16.7h14a1.7 1.7 0 0 0 1.694-1.553L18.7 15V3a1.7 1.7 0 0 0-1.553-1.694L17 1.3z" fill-rule="nonzero"/><path d="M15 0v3a1 1 0 0 1-1 1H6a1 1 0 0 1-1-1V0h10zm-1.3 1.3H6.3v1.4h7.4V1.3z" fill-rule="nonzero"/><text font-family="PingFangSC-Semibold, PingFang SC" font-size="10" font-weight="500" transform="translate(-2 -3)">
                <tspan x="7.5" y="17">补</tspan>
            </text></g></svg>